<svg width="17" height="17" viewBox="0 0 17 17" fill="none" xmlns="http://www.w3.org/2000/svg">
<path d="M16 10.3792C13.6171 11.3427 11.0704 11.8365 8.5 11.8333C5.8475 11.8333 3.31667 11.3167 1 10.3792M8.5 9.33333H8.50833M11.8333 4.33333V2.66667C11.8333 2.22464 11.6577 1.80072 11.3452 1.48816C11.0326 1.17559 10.6087 1 10.1667 1H6.83333C6.39131 1 5.96738 1.17559 5.65482 1.48816C5.34226 1.80072 5.16667 2.22464 5.16667 2.66667V4.33333H11.8333ZM2.66667 16H14.3333C14.7754 16 15.1993 15.8244 15.5118 15.5118C15.8244 15.1993 16 14.7754 16 14.3333V6C16 5.55797 15.8244 5.13405 15.5118 4.82149C15.1993 4.50893 14.7754 4.33333 14.3333 4.33333H2.66667C2.22464 4.33333 1.80072 4.50893 1.48816 4.82149C1.17559 5.13405 1 5.55797 1 6V14.3333C1 14.7754 1.17559 15.1993 1.48816 15.5118C1.80072 15.8244 2.22464 16 2.66667 16Z" stroke="#D0624C" stroke-width="2" stroke-linecap="round" stroke-linejoin="round"/>
</svg>
